<?xml version="1.0" encoding="utf-8"?>
<!-- Generator: Adobe Illustrator 24.1.2, SVG Export Plug-In . SVG Version: 6.00 Build 0)  -->
<svg version="1.1" id="Camada_1" xmlns="http://www.w3.org/2000/svg" xmlns:xlink="http://www.w3.org/1999/xlink" x="0px" y="0px"
	 viewBox="0 0 1280 1280" style="enable-background:new 0 0 1280 1280;" xml:space="preserve">
<style type="text/css">
	.st0{fill:#FFFFFF;}
</style>
<path class="st0" d="M470.2,376.1c0-4.7,0-8.6,0-13c99.8,0,199.3,0,299.4,0c0,130.6,0,261.5,0,393.2c2.9,0,5.1,0,7.3,0
	c50,0,100,0,150,0.1c3.7,0,6-0.9,7.9-4.3c44-75.8,88.1-151.5,132.2-227.2c0.7-1.2,1.3-2.5,2.4-4.6c-83,0-165.3,0-248,0
	c0-51.6,0-102.5,0-153.7c149.9,0,299.5,0,449.9,0c0,2.7,0,5.1,0,7.5c0,46.2,0.1,92.5-0.1,138.7c0,4.6-1.1,9.5-3.1,13.6
	c-63.6,129.8-127.5,259.5-191,389.4c-3.5,7.2-7.3,9.5-15.3,9.4c-71-0.4-142.1-0.1-213.1-0.3c-85.3-0.2-170.7-0.8-256-1.2
	c-1.6,0-3.2,0-5.5,0c0-131.3,0-262,0-393.4c-2.8-0.1-4.9-0.3-7.1-0.3c-34.4,0-68.7,0.3-103.1-0.3c-7-0.1-11.2,1.9-15.3,7
	c-5.5,6.8-11.6,13.1-17.8,19.9c-3.9-3.1-7.8-5.8-11.4-8.9c-27.9-23.9-60.6-35.2-96.8-36.5c-49.5-1.8-90.9,14.7-121.4,55.1
	c-13,17.2-18.1,37.1-21.9,57.8c-4.3,23.5,0.8,45.6,9.4,67c8.9,22.1,27.5,35.1,47.4,46.1c21.3,11.7,44.3,18.2,68.6,19
	c24.7,0.7,49.4,0.2,74.8,0.2c0-37.8,0-75.2,0-113c57.2,0,113.8,0,170.7,0c0,93.3,0,186.4,0,280.3c-2.2,0-4.3,0-6.5,0
	c-79.6,0-159.2,0.3-238.7-0.1c-63-0.3-123.5-12.4-178.7-43.9C68.2,839.2,26.5,777.3,12.7,696.9c-7.7-45-7.8-90,3.5-134.5
	c13.8-54.5,42.7-99.4,87.4-133.9c30.9-23.9,63.5-45.1,100.3-58.9c30.3-11.3,62.1-15.9,94.1-18c54.1-3.5,107.1,3.8,158.9,19.6
	C461.1,372.5,465.1,374.2,470.2,376.1z"/>
</svg>
